# Blender v3.1.2 OBJ File: 'amogus.blend'
# www.blender.org
mtllib amogus.mtl
o Cube
v 0.234823 1.000000 -1.000000
v -0.763299 -1.507820 -0.339905
v -0.763299 -1.507820 1.000000
v -0.763299 -0.517510 -0.339905
v 0.234823 0.385423 0.467598
v -0.763299 -1.507820 -1.000000
v -0.763299 -0.517510 -1.000000
v -0.763299 -0.517510 1.000000
v 0.050426 -1.507820 -0.339905
v -0.763299 -1.507820 0.339905
v 0.234823 0.828140 0.467598
v 0.050426 -0.517510 -0.339905
v 0.050426 -1.507820 -1.000000
v -1.390071 0.118759 0.700000
v -0.763299 -0.517510 0.339905
v 0.050426 -0.517510 -1.000000
v 0.050426 -1.507820 1.000000
v 0.234823 0.385423 -0.509651
v -1.390071 1.190965 0.700000
v 0.050426 -0.517510 1.000000
v 0.050426 -1.507820 0.339905
v 0.234823 0.828140 -0.509651
v 0.234823 -0.517510 -1.000000
v 0.050426 -0.517510 0.339905
v 0.427044 0.385423 0.467598
v 0.234823 1.000000 1.000000
v 0.427044 0.828140 0.467598
v -1.390071 0.118759 -0.700000
v -1.390071 1.190965 -0.700000
v 0.427044 0.385423 -0.509651
v 0.234823 -0.517510 1.000000
v 0.427044 0.828140 -0.509651
v -0.990071 0.118759 0.700000
v -0.990071 1.000000 -1.000000
v -0.990071 -0.517510 -1.000000
v -0.990071 1.190965 0.700000
v -0.990071 1.000000 1.000000
v -0.990071 0.118759 -0.700000
v -0.990071 -0.517510 1.000000
v -0.990071 1.190965 -0.700000
v -0.990071 1.000000 -0.700000
v -0.990071 1.000000 0.700000
v 0.050426 -0.517510 -1.000000
v -0.763299 -0.517510 -1.000000
vt 0.875000 0.712500
vt 0.875000 0.750000
vt 0.625000 0.750000
vt 0.625000 0.500000
vt 0.875000 0.500000
vt 0.875000 0.537500
vt 0.375000 0.750000
vt 0.625000 1.000000
vt 0.375000 1.000000
vt 0.448871 0.212500
vt 0.625000 0.212500
vt 0.625000 0.250000
vt 0.375000 0.250000
vt 0.375000 0.000000
vt 0.625000 0.000000
vt 0.625000 0.037500
vt 0.448871 0.037500
vt 0.375000 0.500000
vt 0.337365 0.750000
vt 0.337365 0.667488
vt 0.171284 0.667488
vt 0.171284 0.750000
vt 0.125000 0.750000
vt 0.125000 0.500000
vt 0.171284 0.500000
vt 0.171284 0.582512
vt 0.337365 0.582512
vt 0.337365 0.500000
vt 0.375000 0.462365
vt 0.375000 0.296284
vt 0.375000 0.000000
vt 0.625000 0.000000
vt 0.625000 0.250000
vt 0.375000 0.250000
vt 0.375000 0.500000
vt 0.625000 0.500000
vt 0.595162 0.500000
vt 0.625000 0.750000
vt 0.595162 0.750000
vt 0.625000 1.000000
vt 0.375000 1.000000
vt 0.375000 0.750000
vt 0.125000 0.500000
vt 0.125000 0.750000
vt 0.875000 0.500000
vt 0.875000 0.750000
vt 0.724609 0.011719
vt 0.974609 0.011719
vt 0.974609 0.261719
vt 0.724609 0.261719
vt 0.724609 0.011719
vt 0.974609 0.011719
vt 0.974609 0.261719
vt 0.724609 0.261719
vt 0.724609 0.011719
vt 0.974609 0.011719
vt 0.974609 0.261719
vt 0.724609 0.261719
vt 0.974609 0.011719
vt 0.974609 0.261719
vt 0.724609 0.011719
vt 0.724609 0.261719
vt 0.375000 0.000000
vt 0.625000 0.000000
vt 0.625000 0.250000
vt 0.375000 0.250000
vt 0.625000 0.500000
vt 0.375000 0.500000
vt 0.009847 0.999918
vt 0.009848 0.000082
vt 0.676293 0.000082
vt 0.676293 0.999918
vt 0.375000 0.750000
vt 0.625000 0.750000
vt 0.625000 1.000000
vt 0.375000 1.000000
vt 0.125000 0.500000
vt 0.125000 0.750000
vt 0.375000 0.000000
vt 0.625000 0.000000
vt 0.625000 0.250000
vt 0.625000 0.250000
vt 0.375000 0.250000
vt 0.625000 0.500000
vt 0.375000 0.500000
vt 0.625000 0.750000
vt 0.375000 0.750000
vt 0.625000 0.500000
vt 0.625000 1.000000
vt 0.375000 1.000000
vt 0.125000 0.500000
vt 0.125000 0.750000
vt 0.875000 0.500000
vt 0.875000 0.500000
vn 0.0000 1.0000 0.0000
vn 0.0000 0.0000 1.0000
vn -1.0000 -0.0000 0.0000
vn 0.0000 -1.0000 -0.0000
vn 0.0000 -0.9926 -0.1217
vn 1.0000 0.0000 0.0000
vn 0.0000 0.0000 -1.0000
usemtl Material
s off
f 42/1/1 37/2/1 26/3/1 1/4/1 34/5/1 41/6/1
f 31/7/2 26/3/2 37/8/2 39/9/2
f 38/10/3 41/11/3 34/12/3 35/13/3 39/14/3 37/15/3 42/16/3 33/17/3
f 23/18/4 31/7/4 20/19/4 24/20/4 15/21/4 8/22/4 39/23/4 35/24/4 44/25/4 4/26/4 12/27/4 43/28/4
f 31/7/5 39/23/5 8/22/5 20/19/5
f 23/18/6 1/4/6 26/3/6 31/7/6
f 34/12/7 1/4/7 23/18/7 43/29/7 44/30/7 35/13/7
f 14/31/3 19/32/3 29/33/3 28/34/3
f 38/35/7 28/34/7 29/33/7 40/36/7 41/37/7
f 41/37/6 40/36/6 36/38/6 42/39/6
f 42/39/2 36/38/2 19/40/2 14/41/2 33/42/2
f 28/43/4 38/35/4 33/42/4 14/44/4
f 40/36/1 29/45/1 19/46/1 36/38/1
f 18/47/7 22/48/7 32/49/7 30/50/7
f 30/51/6 32/52/6 27/53/6 25/54/6
f 25/55/2 27/56/2 11/57/2 5/58/2
f 18/47/4 30/59/4 25/60/4 5/58/4
f 32/61/1 22/48/1 11/57/1 27/62/1
f 3/63/3 8/64/3 15/65/3 10/66/3
f 10/66/7 15/65/7 24/67/7 21/68/7
f 20/69/6 17/70/6 21/71/6 24/72/6
f 17/73/2 20/74/2 8/75/2 3/76/2
f 10/77/4 21/68/4 17/73/4 3/78/4
f 2/79/3 4/80/3 44/81/3 7/82/3 6/83/3
f 6/83/7 7/82/7 16/84/7 13/85/7
f 12/86/6 9/87/6 13/85/6 16/84/6 43/88/6
f 4/89/2 2/90/2 9/87/2 12/86/2
f 6/91/4 13/85/4 9/87/4 2/92/4
f 43/88/1 16/84/1 7/93/1 44/94/1
