# Blender v3.1.2 OBJ File: 'glock.blend'
# www.blender.org
mtllib pistol.mtl
o Cube
v 0.096964 0.054670 -0.218680
v 0.096964 -0.054670 -0.218680
v 0.096964 0.054670 0.212170
v 0.096964 -0.054670 0.189339
v -0.096964 0.054670 -0.218680
v -0.096964 -0.054670 -0.218680
v -0.096964 0.054670 0.212170
v -0.096964 -0.054670 0.189339
v 0.096964 -0.054670 0.091438
v -0.096964 -0.054670 0.091928
v -0.085056 -0.414342 0.200053
v -0.085056 -0.414342 0.448350
v 0.085056 -0.414342 0.448350
v 0.085056 -0.414342 0.199563
v -0.085056 -0.170876 0.120108
v 0.085056 -0.170383 0.119457
v -0.085056 -0.149492 0.113086
v 0.085056 -0.149568 0.112622
v -0.085516 -0.163713 -0.049861
v 0.084596 -0.163220 -0.050512
v -0.085516 -0.142329 -0.029396
v 0.084596 -0.142406 -0.029860
v -0.085516 -0.084980 -0.060162
v -0.085516 -0.085549 -0.080627
v 0.084596 -0.085056 -0.060627
v 0.084596 -0.085056 -0.081278
v 0.096964 -0.054670 0.064684
v -0.096964 -0.054670 0.061987
v -0.085886 -0.132017 0.025200
v -0.085886 -0.132017 0.055140
v 0.084227 -0.132017 0.054651
v 0.084227 -0.132017 0.027897
v -0.085056 -0.085056 0.091928
v -0.085056 -0.085056 0.304705
v 0.085056 0.085056 -0.340224
v 0.085056 -0.085056 -0.340224
v -0.085056 0.085056 0.340224
v 0.085056 0.085056 0.340224
v 0.085056 -0.085056 0.304705
v -0.085056 0.085056 -0.340224
v -0.085056 -0.085056 -0.340224
v 0.085056 -0.085056 0.064684
v 0.085056 -0.085056 0.091438
v -0.085056 -0.085056 0.061987
v -0.085911 -0.085118 0.198316
v 0.000000 -0.087476 -0.349904
v 0.087817 0.000000 -0.353732
v -0.086533 -0.000092 0.329479
v 0.086533 -0.000092 0.329479
v -0.087817 0.000000 -0.353732
v 0.000000 0.087411 0.350149
v 0.087885 0.088470 0.000000
v 0.000000 -0.085405 0.324952
v -0.087885 0.088470 0.000000
v 0.000000 0.087476 -0.349904
v 0.085403 -0.085813 -0.137770
v 0.085912 -0.085118 0.198072
v -0.085092 -0.085075 0.076958
v -0.000000 -0.094804 0.091094
v -0.086116 -0.415391 0.324201
v -0.000000 -0.417018 0.460284
v 0.086119 -0.415394 0.323956
v -0.000002 -0.417352 0.188714
v -0.085684 -0.292724 0.154466
v -0.087560 -0.249444 0.385877
v 0.085707 -0.292478 0.153859
v 0.087560 -0.249444 0.385877
v -0.085284 -0.160190 0.116298
v 0.085274 -0.159982 0.115747
v 0.000009 -0.175707 0.097666
v -0.084394 -0.117267 0.102842
v 0.084390 -0.117305 0.102383
v -0.000001 -0.142946 0.089424
v -0.085944 -0.152990 -0.040147
v 0.085017 -0.152781 -0.040706
v -0.000455 -0.166324 -0.062431
v -0.000454 -0.137360 -0.008249
v -0.085343 -0.167502 0.034986
v 0.084891 -0.167010 0.034329
v -0.084909 -0.146038 0.041724
v 0.084451 -0.146117 0.041295
v -0.085602 -0.085179 -0.070433
v 0.084682 -0.084970 -0.070953
v -0.000471 -0.082676 -0.093206
v -0.000457 -0.081866 -0.049966
v 0.085800 -0.124262 -0.070930
v 0.084757 -0.113689 -0.043995
v -0.086730 -0.124750 -0.070085
v -0.085680 -0.113609 -0.043418
v 0.085087 -0.085072 0.078061
v -0.085384 -0.085806 -0.139119
v 0.000015 -0.091088 0.047935
v -0.086014 -0.132140 0.040170
v -0.000828 -0.135220 0.065445
v 0.084339 -0.132129 0.041274
v -0.000817 -0.134542 0.014275
v -0.085482 -0.108471 0.042271
v -0.085567 -0.108603 0.074924
v 0.084755 -0.108605 0.074403
v 0.084670 -0.108473 0.044986
v -0.097027 -0.054679 0.140634
v 0.097538 0.000000 -0.219010
v -0.097538 -0.000004 0.201084
v 0.097538 -0.000004 0.201084
v -0.097538 0.000000 -0.219010
v 0.097533 0.054750 -0.003255
v -0.097533 0.054750 -0.003255
v 0.097150 -0.054697 -0.076998
v 0.097027 -0.054679 0.140389
v -0.096964 -0.054670 0.076958
v 0.096964 -0.054670 0.078061
v -0.097148 -0.054696 -0.078346
v -0.091294 -0.069823 0.247659
v -0.091053 -0.069880 0.091928
v 0.091725 0.070003 -0.280013
v 0.091725 -0.070003 -0.280013
v -0.091748 0.070000 0.276775
v 0.091294 -0.069823 0.247659
v 0.091748 0.070000 0.276775
v -0.091725 -0.070003 -0.280013
v -0.091725 0.070003 -0.280013
v 0.091173 -0.069927 0.064614
v 0.091057 -0.069882 0.091440
v -0.091168 -0.069925 0.061922
v -0.091649 -0.070342 -0.109177
v 0.091132 -0.069913 0.078061
v -0.091130 -0.069912 0.076960
v 0.091572 -0.069928 0.169302
v 0.091662 -0.070347 -0.107825
v -0.093188 0.071747 -0.001632
v 0.093188 0.071747 -0.001632
v -0.093159 0.000000 -0.286927
v 0.092436 0.000058 0.265832
v -0.092436 0.000058 0.265832
v 0.093159 0.000000 -0.286927
v -0.091570 -0.069927 0.169545
v 0.085102 -0.108624 0.060020
v -0.000437 -0.112880 0.032463
v -0.000564 -0.114893 0.075353
v -0.000826 -0.135279 0.039776
v -0.085936 -0.108618 0.058940
v -0.000441 -0.109586 -0.028524
v -0.086989 -0.119077 -0.055254
v -0.000500 -0.124721 -0.087416
v -0.000464 -0.081940 -0.071685
v 0.085009 -0.156375 0.037529
v -0.000235 -0.140905 0.039900
v -0.085473 -0.156584 0.038071
v 0.086064 -0.118871 -0.055888
v -0.000225 -0.171009 0.017624
v 0.000002 -0.296570 0.141480
v -0.000000 -0.250758 0.410367
v 0.000827 -0.118896 0.099823
v -0.000001 -0.419315 0.324541
v 0.000000 0.000000 -0.372528
v 0.000010 -0.089732 -0.151050
v 0.000000 0.001635 0.346589
v 0.000000 0.092981 0.000131
vt 0.750000 0.625000
vt 0.875000 0.625000
vt 0.875000 0.750000
vt 0.750000 0.750000
vt 0.500000 0.875000
vt 0.625000 0.875000
vt 0.625000 1.000000
vt 0.500000 1.000000
vt 0.419656 0.048743
vt 0.500000 0.047130
vt 0.580344 0.045517
vt 0.580344 0.125241
vt 0.580344 0.204965
vt 0.500000 0.204909
vt 0.419656 0.204853
vt 0.419656 0.152138
vt 0.419656 0.099423
vt 0.419656 0.093574
vt 0.419656 0.087725
vt 0.419656 0.068234
vt 0.250000 0.574135
vt 0.375000 0.574383
vt 0.375000 0.648765
vt 0.250000 0.648270
vt 0.419656 0.545147
vt 0.500000 0.545091
vt 0.580344 0.545035
vt 0.580344 0.624759
vt 0.580344 0.704483
vt 0.500000 0.702873
vt 0.419656 0.701263
vt 0.419656 0.681675
vt 0.419656 0.662088
vt 0.419656 0.656858
vt 0.419656 0.651629
vt 0.419656 0.598388
vt 0.500000 0.375000
vt 0.625000 0.375000
vt 0.625000 0.500000
vt 0.500000 0.500000
vt 0.375000 0.000000
vt 0.375000 0.045613
vt 0.375000 0.091225
vt 0.375000 0.091225
vt 0.375000 0.091225
vt 0.375000 0.091225
vt 0.375000 0.091225
vt 0.375000 0.091225
vt 0.375000 0.091225
vt 0.375000 0.045613
vt 0.375000 0.000000
vt 0.375000 0.000000
vt 0.250000 0.704342
vt 0.375000 0.704297
vt 0.375000 0.750000
vt 0.250000 0.750000
vt 0.250000 0.658685
vt 0.375000 0.658595
vt 0.375000 0.658595
vt 0.250000 0.658685
vt 0.375000 0.658595
vt 0.375000 0.704297
vt 0.375000 0.750000
vt 0.375000 0.750000
vt 0.375000 0.658595
vt 0.375000 0.658595
vt 0.375000 0.658595
vt 0.375000 0.658595
vt 0.375000 0.875000
vt 0.375000 1.000000
vt 0.375000 1.000000
vt 0.375000 0.875000
vt 0.250000 0.658685
vt 0.250000 0.658685
vt 0.250000 0.658685
vt 0.125000 0.658775
vt 0.125000 0.658775
vt 0.250000 0.658685
vt 0.375000 0.658595
vt 0.375000 0.658595
vt 0.375000 0.658595
vt 0.375000 0.658595
vt 0.375000 0.091225
vt 0.375000 0.091225
vt 0.375000 0.091225
vt 0.375000 0.091225
vt 0.250000 0.658685
vt 0.375000 0.658595
vt 0.375000 0.658595
vt 0.250000 0.658685
vt 0.375000 0.658595
vt 0.375000 0.658595
vt 0.375000 0.658595
vt 0.375000 0.658595
vt 0.250000 0.658685
vt 0.250000 0.658685
vt 0.250000 0.658685
vt 0.125000 0.658775
vt 0.125000 0.658775
vt 0.375000 0.091225
vt 0.375000 0.091225
vt 0.375000 0.091225
vt 0.375000 0.091225
vt 0.250000 0.658685
vt 0.375000 0.658595
vt 0.375000 0.658595
vt 0.250000 0.658685
vt 0.375000 0.096725
vt 0.375000 0.102226
vt 0.375000 0.102226
vt 0.375000 0.096725
vt 0.250000 0.653477
vt 0.375000 0.653680
vt 0.375000 0.658595
vt 0.250000 0.658685
vt 0.250000 0.658685
vt 0.125000 0.658775
vt 0.125000 0.658775
vt 0.250000 0.648270
vt 0.375000 0.648765
vt 0.375000 0.648765
vt 0.250000 0.648270
vt 0.375000 0.653680
vt 0.375000 0.658595
vt 0.397328 0.056923
vt 0.397328 0.089475
vt 0.500000 0.522546
vt 0.397328 0.522573
vt 0.375000 0.500000
vt 0.500000 0.023565
vt 0.397328 0.024371
vt 0.500000 0.000000
vt 0.500000 0.726436
vt 0.602672 0.727242
vt 0.625000 0.750000
vt 0.500000 0.750000
vt 0.500000 0.227455
vt 0.602672 0.227482
vt 0.625000 0.250000
vt 0.500000 0.250000
vt 0.602672 0.624880
vt 0.602672 0.522518
vt 0.625000 0.625000
vt 0.602672 0.125121
vt 0.602672 0.022759
vt 0.625000 0.000000
vt 0.625000 0.125000
vt 0.397328 0.586385
vt 0.397328 0.650197
vt 0.397328 0.692986
vt 0.397328 0.725631
vt 0.397328 0.095150
vt 0.397328 0.100824
vt 0.375000 0.102226
vt 0.375000 0.096725
vt 0.397328 0.655269
vt 0.397328 0.660341
vt 0.375000 0.653680
vt 0.397328 0.164125
vt 0.397328 0.227427
vt 0.375000 0.250000
vt 0.375000 0.176113
vt 0.125000 0.647774
vt 0.125000 0.647774
vt 0.125000 0.647774
vt 0.250000 0.658685
vt 0.125000 0.658775
vt 0.125000 0.653275
vt 0.375000 0.091225
vt 0.375000 0.091225
vt 0.125000 0.658775
vt 0.125000 0.658775
vt 0.125000 0.658775
vt 0.375000 0.091225
vt 0.375000 0.091225
vt 0.375000 0.091225
vt 0.125000 0.658775
vt 0.125000 0.658775
vt 0.125000 0.658775
vt 0.375000 0.091225
vt 0.250000 0.658685
vt 0.125000 0.658775
vt 0.125000 0.658775
vt 0.125000 0.658775
vt 0.375000 0.875000
vt 0.375000 1.000000
vt 0.125000 0.658775
vt 0.125000 0.704387
vt 0.125000 0.750000
vt 0.375000 0.375000
vt 0.125000 0.573887
vt 0.125000 0.500000
vt 0.250000 0.500000
vt 0.750000 0.500000
vt 0.875000 0.500000
vn -0.0404 0.9991 0.0132
vn -0.1532 -0.0811 0.9849
vn -1.0000 -0.0019 -0.0000
vn 0.0585 -0.9983 -0.0014
vn 1.0000 -0.0019 -0.0000
vn 0.1619 0.2048 -0.9653
vn -1.0000 -0.0015 -0.0045
vn 0.0395 -0.9991 0.0130
vn 0.1511 0.0024 -0.9885
vn 1.0000 -0.0015 -0.0045
vn -0.1890 0.3143 0.9303
vn 0.1405 -0.3545 -0.9245
vn -0.0449 -0.9977 -0.0512
vn 0.9994 0.0284 -0.0200
vn -0.9991 0.0405 0.0092
vn 0.0674 0.9959 0.0605
vn 0.9997 -0.0238 -0.0028
vn 0.0337 0.9991 -0.0259
vn -0.1657 -0.1919 -0.9673
vn -0.9975 0.0503 0.0500
vn 0.1494 0.5539 0.8191
vn -0.9995 0.0241 -0.0182
vn 0.0375 -0.9993 0.0045
vn -0.0833 -0.5589 0.8250
vn 0.0958 0.6113 -0.7856
vn 0.9990 -0.0412 0.0167
vn -0.9313 -0.3642 -0.0072
vn 0.9952 -0.0387 -0.0895
vn -0.9946 -0.0430 0.0946
vn 0.9951 0.0001 0.0986
vn -0.9952 0.0387 -0.0895
vn 0.9413 0.3374 -0.0093
vn -0.9417 0.3364 0.0093
vn 0.9259 -0.3777 0.0032
vn 0.9370 -0.3493 0.0061
vn -0.9281 -0.3722 -0.0000
vn 0.9294 -0.3691 0.0043
vn -0.9226 -0.3858 -0.0018
vn -0.9259 -0.3777 0.0032
vn -0.9384 -0.3455 0.0025
vn -0.9455 -0.3256 -0.0007
vn 0.9280 -0.3726 0.0003
vn 0.9344 -0.3561 0.0016
vn 0.9331 -0.3597 0.0030
vn -0.9295 -0.3687 0.0041
vn -0.9330 -0.3598 0.0028
vn -0.9344 -0.3563 0.0013
vn 0.9312 -0.3644 -0.0071
vn 0.9355 -0.3532 -0.0044
vn 0.9417 -0.3365 0.0028
vn 0.9227 -0.3855 -0.0018
vn 0.9457 -0.3252 -0.0008
vn 0.9386 -0.3450 0.0025
vn -0.9413 0.3374 -0.0093
vn -0.9612 0.2757 -0.0050
vn -0.9616 0.2743 0.0049
vn 0.9417 0.3364 0.0093
vn 0.9616 0.2743 0.0049
vn 0.9612 0.2757 -0.0050
vn -0.9952 -0.0387 -0.0895
vn -0.9972 -0.0202 -0.0718
vn -0.9972 0.0202 -0.0718
vn 0.9946 -0.0430 0.0946
vn 0.9960 -0.0337 0.0831
vn 0.9968 -0.0040 0.0800
vn -0.9951 0.0001 0.0986
vn -0.9968 -0.0040 0.0800
vn -0.9960 -0.0337 0.0831
vn 0.9952 0.0387 -0.0895
vn 0.9972 0.0202 -0.0718
vn 0.9972 -0.0202 -0.0718
vn -0.9370 -0.3493 0.0061
vn -0.9417 -0.3366 0.0028
vn -0.9355 -0.3534 -0.0044
vn 0.9998 -0.0109 -0.0193
vn 0.9999 0.0052 -0.0163
vn 0.9998 -0.0163 0.0137
vn -0.0708 0.6142 -0.7860
vn -0.0726 0.6135 -0.7864
vn 0.0979 0.6099 -0.7864
vn 0.0880 -0.5602 0.8237
vn 0.0593 -0.6003 0.7976
vn -0.0545 -0.5985 0.7993
vn -0.0375 -0.9993 0.0046
vn -0.0347 -0.9992 -0.0214
vn 0.0353 -0.9991 -0.0219
vn -0.9999 -0.0048 0.0161
vn -0.9997 0.0190 0.0131
vn -0.9991 0.0393 -0.0153
vn -0.1439 0.5554 0.8190
vn -0.2040 0.5076 0.8371
vn 0.2093 0.5082 0.8354
vn -0.9994 0.0283 -0.0206
vn -0.9994 -0.0336 -0.0055
vn -0.9976 0.0123 0.0679
vn 0.1585 -0.1902 -0.9689
vn 0.1527 -0.4869 -0.8600
vn -0.1575 -0.4851 -0.8601
vn -0.0387 0.9986 -0.0349
vn -0.0369 0.9993 -0.0084
vn 0.0366 0.9993 0.0005
vn 0.9990 0.0451 0.0032
vn 0.9993 0.0376 -0.0040
vn 0.9999 -0.0160 -0.0033
vn -0.0662 0.9959 0.0610
vn -0.0618 0.9971 0.0454
vn 0.0630 0.9970 0.0449
vn -0.9996 -0.0274 0.0027
vn -0.9999 -0.0165 0.0022
vn -0.9993 0.0372 0.0020
vn 0.9974 0.0504 0.0510
vn 0.9976 0.0123 0.0674
vn 0.9994 -0.0338 -0.0060
vn 0.0503 -0.9974 -0.0514
vn 0.0657 -0.9966 -0.0489
vn -0.0602 -0.9970 -0.0485
vn -0.1458 -0.3541 -0.9238
vn -0.2084 -0.2993 -0.9311
vn 0.2031 -0.2996 -0.9322
vn 0.1890 0.3143 0.9303
vn 0.2212 0.4411 0.8698
vn -0.2212 0.4411 0.8698
vn -0.1550 0.0068 -0.9879
vn -0.0434 -0.3301 -0.9429
vn 0.0384 -0.3293 -0.9434
vn -0.0395 -0.9991 0.0130
vn -0.0412 -0.9991 -0.0117
vn 0.0412 -0.9991 -0.0117
vn 0.1619 -0.2048 -0.9653
vn -0.1619 -0.2048 -0.9653
vn -0.1619 0.2048 -0.9653
vn -0.0585 -0.9983 -0.0015
vn -0.0382 -0.9992 -0.0075
vn 0.0382 -0.9992 -0.0075
vn -0.2036 -0.2567 0.9448
vn 0.2036 -0.2567 0.9448
vn 0.1532 -0.0811 0.9849
vn 0.0404 0.9991 0.0132
vn 0.0408 0.9991 -0.0131
vn -0.0408 0.9991 -0.0131
usemtl Material
s off
f 158/1/1 54/2/1 37/3/1 51/4/1
f 157/5/2 51/6/2 37/7/2 48/8/2
f 8/9/3 103/10/3 7/11/3 107/12/3 5/13/3 105/14/3 6/15/3 112/16/3 28/17/3 110/18/3 10/19/3 101/20/3
f 156/21/4 56/22/4 42/23/4 92/24/4
f 2/25/5 102/26/5 1/27/5 106/28/5 3/29/5 104/30/5 4/31/5 109/32/5 9/33/5 111/34/5 27/35/5 108/36/5
f 155/37/6 55/38/6 35/39/6 47/40/6
f 34/41/7 45/42/7 33/43/7 71/44/7 17/45/7 68/46/7 15/47/7 64/48/7 11/49/7 60/50/7 12/51/7 65/52/7
f 154/53/8 62/54/8 13/55/8 61/56/8
f 153/57/9 72/58/9 18/59/9 73/60/9
f 43/61/10 57/62/10 39/63/10 67/64/10 13/55/10 62/54/10 14/65/10 66/66/10 16/67/10 69/68/10 18/59/10 72/58/10
f 152/69/11 65/70/11 12/71/11 61/72/11
f 151/73/12 66/66/12 14/65/12 63/74/12
f 150/75/13 78/76/13 19/77/13 76/78/13
f 149/79/14 86/80/14 26/81/14 83/82/14
f 148/83/15 80/84/15 21/85/15 74/86/15
f 147/87/16 81/88/16 22/89/16 77/90/16
f 146/91/17 79/92/17 20/93/17 75/94/17
f 145/95/18 83/82/18 26/81/18 84/96/18
f 144/97/19 88/98/19 24/99/19 84/96/19
f 143/100/20 89/101/20 23/102/20 82/103/20
f 142/104/21 87/105/21 25/106/21 85/107/21
f 141/108/22 97/109/22 29/110/22 93/111/22
f 140/112/23 95/113/23 31/114/23 94/115/23
f 139/116/24 98/117/24 30/118/24 94/115/24
f 138/119/25 100/120/25 32/121/25 96/122/25
f 137/123/26 99/124/26 31/114/26 95/113/26
f 136/125/27 114/126/27 33/43/27 45/42/27
f 135/127/28 116/128/28 36/129/28 47/40/28
f 134/130/29 113/131/29 34/41/29 48/132/29
f 133/133/30 119/134/30 38/135/30 49/136/30
f 132/137/31 121/138/31 40/139/31 50/140/31
f 131/141/32 115/142/32 35/39/32 52/143/32
f 130/144/33 117/145/33 37/146/33 54/147/33
f 129/148/34 122/149/34 42/23/34 56/22/34
f 128/150/35 118/151/35 39/63/35 57/62/35
f 127/152/36 124/153/36 44/154/36 58/155/36
f 126/156/37 123/157/37 43/61/37 90/158/37
f 125/159/38 120/160/38 41/161/38 91/162/38
f 124/153/39 125/159/39 91/162/39 44/154/39
f 28/17/40 112/16/40 125/159/40 124/153/40
f 112/16/41 6/15/41 120/160/41 125/159/41
f 122/149/42 126/156/42 90/158/42 42/23/42
f 27/35/43 111/34/43 126/156/43 122/149/43
f 111/34/44 9/33/44 123/157/44 126/156/44
f 114/126/45 127/152/45 58/155/45 33/43/45
f 10/19/46 110/18/46 127/152/46 114/126/46
f 110/18/47 28/17/47 124/153/47 127/152/47
f 123/157/48 128/150/48 57/62/48 43/61/48
f 9/33/49 109/32/49 128/150/49 123/157/49
f 109/32/50 4/31/50 118/151/50 128/150/50
f 116/128/51 129/148/51 56/22/51 36/129/51
f 2/25/52 108/36/52 129/148/52 116/128/52
f 108/36/53 27/35/53 122/149/53 129/148/53
f 121/138/54 130/144/54 54/147/54 40/139/54
f 5/13/55 107/12/55 130/144/55 121/138/55
f 107/12/56 7/11/56 117/145/56 130/144/56
f 119/134/57 131/141/57 52/143/57 38/135/57
f 3/29/58 106/28/58 131/141/58 119/134/58
f 106/28/59 1/27/59 115/142/59 131/141/59
f 120/160/60 132/137/60 50/140/60 41/161/60
f 6/15/61 105/14/61 132/137/61 120/160/61
f 105/14/62 5/13/62 121/138/62 132/137/62
f 118/151/63 133/133/63 49/136/63 39/63/63
f 4/31/64 104/30/64 133/133/64 118/151/64
f 104/30/65 3/29/65 119/134/65 133/133/65
f 117/145/66 134/130/66 48/132/66 37/146/66
f 7/11/67 103/10/67 134/130/67 117/145/67
f 103/10/68 8/9/68 113/131/68 134/130/68
f 115/142/69 135/127/69 47/40/69 35/39/69
f 1/27/70 102/26/70 135/127/70 115/142/70
f 102/26/71 2/25/71 116/128/71 135/127/71
f 113/131/72 136/125/72 45/42/72 34/41/72
f 8/9/73 101/20/73 136/125/73 113/131/73
f 101/20/74 10/19/74 114/126/74 136/125/74
f 100/120/75 137/123/75 95/113/75 32/121/75
f 42/23/76 90/158/76 137/123/76 100/120/76
f 90/158/77 43/61/77 99/124/77 137/123/77
f 97/163/78 138/119/78 96/122/78 29/164/78
f 44/165/79 92/24/79 138/119/79 97/163/79
f 92/24/80 42/23/80 100/120/80 138/119/80
f 99/124/81 139/116/81 94/115/81 31/114/81
f 43/61/82 59/166/82 139/116/82 99/124/82
f 59/166/83 33/167/83 98/117/83 139/116/83
f 93/168/84 140/112/84 94/115/84 30/118/84
f 29/164/85 96/122/85 140/112/85 93/168/85
f 96/122/86 32/121/86 95/113/86 140/112/86
f 98/169/87 141/108/87 93/111/87 30/170/87
f 33/43/88 58/155/88 141/108/88 98/169/88
f 58/155/89 44/154/89 97/109/89 141/108/89
f 89/171/90 142/104/90 85/107/90 23/172/90
f 21/173/91 77/90/91 142/104/91 89/171/91
f 77/90/92 22/89/92 87/105/92 142/104/92
f 88/174/93 143/100/93 82/103/93 24/175/93
f 19/176/94 74/86/94 143/100/94 88/174/94
f 74/86/95 21/85/95 89/101/95 143/100/95
f 86/80/96 144/97/96 84/96/96 26/81/96
f 20/93/97 76/78/97 144/97/97 86/80/97
f 76/78/98 19/77/98 88/98/98 144/97/98
f 82/177/99 145/95/99 84/96/99 24/99/99
f 23/172/100 85/107/100 145/95/100 82/177/100
f 85/107/101 25/106/101 83/82/101 145/95/101
f 81/88/102 146/91/102 75/94/102 22/89/102
f 18/59/103 69/68/103 146/91/103 81/88/103
f 69/68/104 16/67/104 79/92/104 146/91/104
f 80/178/105 147/87/105 77/90/105 21/173/105
f 17/179/106 73/60/106 147/87/106 80/178/106
f 73/60/107 18/59/107 81/88/107 147/87/107
f 78/180/108 148/83/108 74/86/108 19/176/108
f 15/47/109 68/46/109 148/83/109 78/180/109
f 68/46/110 17/45/110 80/84/110 148/83/110
f 87/105/111 149/79/111 83/82/111 25/106/111
f 22/89/112 75/94/112 149/79/112 87/105/112
f 75/94/113 20/93/113 86/80/113 149/79/113
f 79/92/114 150/75/114 76/78/114 20/93/114
f 16/67/115 70/181/115 150/75/115 79/92/115
f 70/181/116 15/182/116 78/76/116 150/75/116
f 64/183/117 151/73/117 63/74/117 11/184/117
f 15/182/118 70/181/118 151/73/118 64/183/118
f 70/181/119 16/67/119 66/66/119 151/73/119
f 67/64/120 152/69/120 61/72/120 13/55/120
f 39/63/121 53/185/121 152/69/121 67/64/121
f 53/185/122 34/186/122 65/70/122 152/69/122
f 71/187/123 153/57/123 73/60/123 17/179/123
f 33/167/124 59/166/124 153/57/124 71/187/124
f 59/166/125 43/61/125 72/58/125 153/57/125
f 60/188/126 154/53/126 61/56/126 12/189/126
f 11/184/127 63/74/127 154/53/127 60/188/127
f 63/74/128 14/65/128 62/54/128 154/53/128
f 46/190/129 155/37/129 47/40/129 36/129/129
f 41/161/130 50/140/130 155/37/130 46/190/130
f 50/140/131 40/139/131 55/38/131 155/37/131
f 91/191/132 156/21/132 92/24/132 44/165/132
f 41/192/133 46/193/133 156/21/133 91/191/133
f 46/193/134 36/129/134 56/22/134 156/21/134
f 53/185/135 157/5/135 48/8/135 34/186/135
f 39/63/136 49/136/136 157/5/136 53/185/136
f 49/136/137 38/135/137 51/6/137 157/5/137
f 52/143/138 158/1/138 51/4/138 38/135/138
f 35/39/139 55/194/139 158/1/139 52/143/139
f 55/194/140 40/195/140 54/2/140 158/1/140
